# File created by Blade
# Date/Time:  Wed Jan 21 17:05:57 2015
# Frame Rate: 120.000 fps
#------------------------------------------------------
:FULLY-SPECIFIED
:DEGREES
323
root 19.232732 8.668143 -13.464312 -181.773129 3.308301 -179.030618
Spine 79.956330 3.257802 1.395582
Head -11.789426 -0.251889 3.187506
LeftShoulder 22.950841 -63.114121 23.592381
LeftArm 52.305650 7.592945 -10.447195
LeftForeArm 0.365357 -0.000000 -0.684261
LeftHand -5.628128 -0.000000 17.678822
LeftHandThumb1 -26.253704 0.000000 33.147579
RightShoulder 10.588463 26.825392 -36.346676
RightArm 50.549849 35.699253 16.797423
RightForeArm -23.095569 -0.000000 10.541782
RightHand -10.369125 -0.000000 -14.261790
RightHandThumb1 -24.326973 -0.000000 -32.862282
LeftUpLeg -120.722457 29.051792 -8.567651
LeftLeg 148.714869 -0.000000 -0.000000
LeftFoot -47.152081 18.885956 -11.740654
LeftToeBase 24.769045 -0.000000 -0.000000
RightUpLeg -118.590697 -20.677232 7.433293
RightLeg 146.254288 -0.000000 -0.000000
RightFoot -47.278962 -23.913213 15.058300
RightToeBase 24.645894 -0.000000 -0.000000
324
root 19.226472 8.674978 -13.461736 -181.676880 3.338524 -178.976850
Spine 79.907631 3.274084 1.419242
Head -11.771113 -0.236365 3.154460
LeftShoulder 22.911393 -63.139834 23.597748
LeftArm 52.326342 7.635236 -10.497006
LeftForeArm 0.436450 -0.000000 -0.700996
LeftHand -5.559866 0.000000 17.588333
LeftHandThumb1 -26.253704 0.000000 33.147579
RightShoulder 10.618212 26.875348 -36.339304
RightArm 50.608783 35.667453 16.898450
RightForeArm -23.129599 -0.000000 10.487763
RightHand -10.296306 0.000000 -14.225311
RightHandThumb1 -24.326973 -0.000000 -32.862282
LeftUpLeg -120.817626 29.060195 -8.600934
LeftLeg 148.710088 -0.000000 -0.000000
LeftFoot -47.178950 18.902459 -11.718647
LeftToeBase 24.783572 -0.000000 -0.000000
RightUpLeg -118.619690 -20.643438 7.469895
RightLeg 146.208946 -0.000000 -0.000000
RightFoot -47.276258 -23.908582 15.040468
RightToeBase 24.622378 -0.000000 -0.000000
325
root 19.216382 8.694629 -13.456706 -181.615389 3.325434 -178.960985
Spine 79.957182 3.253737 1.421897
Head -11.849217 -0.240693 3.125657
LeftShoulder 22.912264 -63.210541 23.611161
LeftArm 52.278709 7.706621 -10.487768
LeftForeArm 0.343429 -0.000000 -0.625451
LeftHand -5.664143 -0.000000 17.802238
LeftHandThumb1 -26.253704 0.000000 33.147579
RightShoulder 10.622343 26.937357 -36.373795
RightArm 50.591810 35.684020 16.956886
RightForeArm -23.135068 -0.000000 10.465220
RightHand -10.238841 -0.000000 -14.270087
RightHandThumb1 -24.326973 -0.000000 -32.862282
LeftUpLeg -120.806025 29.017203 -8.654700
LeftLeg 148.663250 -0.000000 -0.000000
LeftFoot -47.195304 18.917348 -11.702773
LeftToeBase 24.711382 -0.000000 -0.000000
RightUpLeg -118.590083 -20.670173 7.470507
RightLeg 146.140187 -0.000000 -0.000000
RightFoot -47.268899 -23.867161 15.061491
RightToeBase 24.601992 -0.000000 -0.000000
326
root 19.207490 8.705645 -13.453891 -181.542687 3.333212 -178.918018
Spine 79.963058 3.256490 1.483141
Head -11.887437 -0.276231 3.097291
LeftShoulder 22.977615 -63.251250 23.522214
LeftArm 52.331637 7.627982 -10.617171
LeftForeArm 0.590035 -0.000000 -0.744772
LeftHand -5.595473 0.000000 17.754556
LeftHandThumb1 -26.253704 0.000000 33.147579
RightShoulder 10.641368 26.828047 -36.340531
RightArm 50.518324 35.703173 16.745727
RightForeArm -23.005602 -0.000000 10.457306
RightHand -10.286495 -0.000000 -14.150043
RightHandThumb1 -24.326973 -0.000000 -32.862282
LeftUpLeg -120.858575 28.992129 -8.695317
LeftLeg 148.646795 -0.000000 -0.000000
LeftFoot -47.216309 18.943187 -11.691239
LeftToeBase 24.716288 -0.000000 -0.000000
RightUpLeg -118.589133 -20.684169 7.491172
RightLeg 146.088514 -0.000000 -0.000000
RightFoot -47.265569 -23.828934 15.035924
RightToeBase 24.593674 -0.000000 -0.000000
327
root 19.200567 8.715268 -13.451277 -181.433683 3.341788 -178.899966
Spine 79.884862 3.228836 1.382459
Head -11.815466 -0.171177 3.000522
LeftShoulder 22.870419 -63.216384 23.535116
LeftArm 52.365735 7.807864 -10.428525
LeftForeArm 0.442085 0.000000 -0.715288
LeftHand -5.620263 -0.000000 17.437820
LeftHandThumb1 -26.253704 0.000000 33.147579
RightShoulder 10.655669 27.637602 -36.377934
RightArm 51.304652 35.687573 18.374798
RightForeArm -24.486813 -0.000000 10.216099
RightHand -10.174610 -0.000000 -14.138279
RightHandThumb1 -24.326973 -0.000000 -32.862282
LeftUpLeg -120.948852 28.978974 -8.771012
LeftLeg 148.626289 -0.000000 -0.000000
LeftFoot -47.243369 18.948457 -11.685900
LeftToeBase 24.802166 -0.000000 -0.000000
RightUpLeg -118.646749 -20.673699 7.514444
RightLeg 146.046227 -0.000000 -0.000000
RightFoot -47.261058 -23.816044 15.031161
RightToeBase 24.572747 -0.000000 -0.000000
328
root 19.192214 8.721754 -13.449486 -181.333601 3.348326 -178.882359
Spine 79.824989 3.241971 1.399580
Head -11.790456 -0.203428 2.967951
LeftShoulder 22.950892 -63.395881 23.468185
LeftArm 52.304645 7.716163 -10.932554
LeftForeArm 0.946490 -0.000000 -0.834550
LeftHand -5.445382 -0.000000 17.772205
LeftHandThumb1 -26.253704 0.000000 33.147579
RightShoulder 10.636686 27.796591 -36.367263
RightArm 51.369654 35.545495 18.542577
RightForeArm -24.618573 -0.000000 10.159296
RightHand -10.184835 -0.000000 -14.087338
RightHandThumb1 -24.326973 -0.000000 -32.862282
LeftUpLeg -121.047646 28.961598 -8.849236
LeftLeg 148.620876 -0.000000 -0.000000
LeftFoot -47.254078 18.966672 -11.656112
LeftToeBase 24.788082 -0.000000 -0.000000
RightUpLeg -118.703564 -20.673959 7.520237
RightLeg 146.010577 -0.000000 -0.000000
RightFoot -47.251363 -23.810457 15.004473
RightToeBase 24.580119 -0.000000 -0.000000
